# xmcd
#
# Track frame offsets:
#	150
#	14912
#	30470
#	41572
#	58152
#	76680
#	89783
#	103254
#	119055
#	132335
#	145790
#	173289
#	189401
#	196896
#	197944
#	201959
#	204675
#	208588
#	223425
#	226959
#	242766
#	243956
#	249266
#	262208
#
# Disc length: 3666 seconds
#
# Revision: 7
# Processed by: cddbd v1.5.2PL0 Copyright (c) Steve Scherf et al.
# Submitted via: EasyCDDAExtractor 15.3.0.1
#
DISCID=710e5018
DTITLE=Selena - Ven Conmigo (20 Years Of Music)
DYEAR=2002
DGENRE=Latin
TTITLE0=Ya Ves
TTITLE1=Aunque No Salga El Sol
TTITLE2=Ven Conmigo
TTITLE3=Yo Te Amo
TTITLE4=Enamorada De Ti
TTITLE5=La Tracalera
TTITLE6=Baila Esta Cumbia
TTITLE7=Yo Me Voy
TTITLE8=No Quiero Saber
TTITLE9=Despues De Enero
TTITLE10=Enamorada De Ti (Club Mix)
TTITLE11=No Quiero Saber (2000 Mix)
TTITLE12=Intro (Spoken Liner Notes By The Band And Family)
TTITLE13=Ya Ves (Spoken Liner Notes By The Band And Family)
TTITLE14=Aunque No Salga El Sol (Spoken Liner Notes By The Band And Family)
TTITLE15=Ven Conmigo (Spoken Liner Notes By The Band And Family)
TTITLE16=Yo Te Amo (Spoken Liner Notes By The Band And Family)
TTITLE17=Enamorada De Ti (Spoken Liner Notes By The Band And Family)
TTITLE18=La Tracalera (Spoken Liner Notes By The Band And Family)
TTITLE19=Baila Esta Cumbia (Spoken Liner Notes By The Band And Family)
TTITLE20=Yo Me Voy (Spoken Liner Notes By The Band And Family)
TTITLE21=No Quiero Saber (Spoken Liner Notes By The Band And Family)
TTITLE22=Outro (Spoken Liner Notes By The Band And Family)
TTITLE23=Data Track
EXTD=
EXTT0=
EXTT1=
EXTT2=
EXTT3=
EXTT4=
EXTT5=
EXTT6=
EXTT7=
EXTT8=
EXTT9=
EXTT10=
EXTT11=
EXTT12=
EXTT13=
EXTT14=
EXTT15=
EXTT16=
EXTT17=
EXTT18=
EXTT19=
EXTT20=
EXTT21=
EXTT22=
EXTT23=
PLAYORDER=
